<mxfile host="app.diagrams.net" agent="Mozilla/5.0 (Macintosh; Intel Mac OS X 10_15_7) AppleWebKit/537.36 (KHTML, like Gecko) Chrome/130.0.0.0 Safari/537.36" version="24.8.3">
  <diagram name="Page-1" id="T3UsR5mjvbSHPUi212Kb">
    <mxGraphModel dx="1224" dy="658" grid="1" gridSize="10" guides="1" tooltips="1" connect="1" arrows="1" fold="1" page="1" pageScale="1" pageWidth="850" pageHeight="1100" math="0" shadow="0">
      <root>
        <mxCell id="0" />
        <mxCell id="1" parent="0" />
        <mxCell id="C25XNkKTsRp1NML5GKJl-1" value="AlgoArena" style="ellipse;whiteSpace=wrap;html=1;aspect=fixed;" parent="1" vertex="1">
          <mxGeometry x="440" y="200" width="120" height="120" as="geometry" />
        </mxCell>
        <mxCell id="C25XNkKTsRp1NML5GKJl-15" value="Registration/Login" style="text;html=1;align=center;verticalAlign=middle;whiteSpace=wrap;rounded=0;rotation=0;" parent="1" vertex="1">
          <mxGeometry x="290.33" width="60" height="30" as="geometry" />
        </mxCell>
        <mxCell id="C25XNkKTsRp1NML5GKJl-17" value="Registration/Login Status" style="text;html=1;align=center;verticalAlign=middle;whiteSpace=wrap;rounded=0;rotation=0;" parent="1" vertex="1">
          <mxGeometry x="40" y="260" width="145" height="30" as="geometry" />
        </mxCell>
        <mxCell id="C25XNkKTsRp1NML5GKJl-19" value="Solve Problems" style="text;html=1;align=center;verticalAlign=middle;whiteSpace=wrap;rounded=0;rotation=0;" parent="1" vertex="1">
          <mxGeometry x="270" y="30" width="98.66" height="30" as="geometry" />
        </mxCell>
        <mxCell id="C25XNkKTsRp1NML5GKJl-22" value="Return Result" style="text;html=1;align=center;verticalAlign=middle;whiteSpace=wrap;rounded=0;rotation=0;" parent="1" vertex="1">
          <mxGeometry x="56.16" y="241.01" width="112.67" height="18.99" as="geometry" />
        </mxCell>
        <mxCell id="C25XNkKTsRp1NML5GKJl-25" value="Evaluate Problem" style="text;html=1;align=center;verticalAlign=middle;whiteSpace=wrap;rounded=0;rotation=0;" parent="1" vertex="1">
          <mxGeometry x="560" y="40" width="100" height="30" as="geometry" />
        </mxCell>
        <mxCell id="C25XNkKTsRp1NML5GKJl-26" value="Return Evaluation" style="text;html=1;align=center;verticalAlign=middle;whiteSpace=wrap;rounded=0;rotation=0;" parent="1" vertex="1">
          <mxGeometry x="610" y="190" width="100" height="30" as="geometry" />
        </mxCell>
        <mxCell id="C25XNkKTsRp1NML5GKJl-30" value="Contest Participation" style="text;html=1;align=center;verticalAlign=middle;whiteSpace=wrap;rounded=0;rotation=0;" parent="1" vertex="1">
          <mxGeometry x="260.33000000000004" y="55" width="117.99" height="30" as="geometry" />
        </mxCell>
        <mxCell id="C25XNkKTsRp1NML5GKJl-33" value="Post Questions" style="text;html=1;align=center;verticalAlign=middle;whiteSpace=wrap;rounded=0;rotation=0;" parent="1" vertex="1">
          <mxGeometry x="260.33" y="91.20999999999998" width="120" height="18.79" as="geometry" />
        </mxCell>
        <mxCell id="C25XNkKTsRp1NML5GKJl-37" value="Get Replies" style="text;html=1;align=center;verticalAlign=middle;whiteSpace=wrap;rounded=0;rotation=0;" parent="1" vertex="1">
          <mxGeometry x="130" y="173.97000000000003" width="80" height="26.03" as="geometry" />
        </mxCell>
        <mxCell id="C25XNkKTsRp1NML5GKJl-41" value="Ratings" style="text;html=1;align=center;verticalAlign=middle;whiteSpace=wrap;rounded=0;rotation=0;" parent="1" vertex="1">
          <mxGeometry x="100" y="211.01" width="60" height="30" as="geometry" />
        </mxCell>
        <mxCell id="C25XNkKTsRp1NML5GKJl-43" value="Calculate Ratings" style="text;html=1;align=center;verticalAlign=middle;whiteSpace=wrap;rounded=0;rotation=0;" parent="1" vertex="1">
          <mxGeometry x="640" y="230" width="100" height="30" as="geometry" />
        </mxCell>
        <mxCell id="C25XNkKTsRp1NML5GKJl-47" value="Return Ratings" style="text;html=1;align=center;verticalAlign=middle;whiteSpace=wrap;rounded=0;rotation=0;" parent="1" vertex="1">
          <mxGeometry x="680" y="260" width="90" height="30" as="geometry" />
        </mxCell>
        <mxCell id="C25XNkKTsRp1NML5GKJl-49" value="Manage Problems" style="text;html=1;align=center;verticalAlign=middle;whiteSpace=wrap;rounded=0;" parent="1" vertex="1">
          <mxGeometry x="320" y="480" width="108.13" height="30" as="geometry" />
        </mxCell>
        <mxCell id="C25XNkKTsRp1NML5GKJl-51" value="Manage User" style="text;html=1;align=center;verticalAlign=middle;whiteSpace=wrap;rounded=0;" parent="1" vertex="1">
          <mxGeometry x="572.5" y="480" width="95" height="30" as="geometry" />
        </mxCell>
        <mxCell id="C25XNkKTsRp1NML5GKJl-53" value="Problems Status" style="text;html=1;align=center;verticalAlign=middle;whiteSpace=wrap;rounded=0;" parent="1" vertex="1">
          <mxGeometry x="310" y="510" width="98.13" height="30" as="geometry" />
        </mxCell>
        <mxCell id="C25XNkKTsRp1NML5GKJl-55" value="User Status" style="text;html=1;align=center;verticalAlign=middle;whiteSpace=wrap;rounded=0;" parent="1" vertex="1">
          <mxGeometry x="580" y="510" width="80" height="30" as="geometry" />
        </mxCell>
        <mxCell id="C25XNkKTsRp1NML5GKJl-56" value="" style="rounded=0;whiteSpace=wrap;html=1;" parent="1" vertex="1">
          <mxGeometry x="40" y="50" width="120" height="60" as="geometry" />
        </mxCell>
        <mxCell id="C25XNkKTsRp1NML5GKJl-57" value="&lt;font style=&quot;font-size: 14px;&quot;&gt;User&lt;/font&gt;" style="text;html=1;align=center;verticalAlign=middle;whiteSpace=wrap;rounded=0;" parent="1" vertex="1">
          <mxGeometry x="60" y="60" width="70" height="35" as="geometry" />
        </mxCell>
        <mxCell id="C25XNkKTsRp1NML5GKJl-58" value="&lt;font style=&quot;font-size: 14px;&quot;&gt;Evaluator System&lt;/font&gt;" style="rounded=0;whiteSpace=wrap;html=1;" parent="1" vertex="1">
          <mxGeometry x="680" y="40" width="120" height="60" as="geometry" />
        </mxCell>
        <mxCell id="C25XNkKTsRp1NML5GKJl-59" value="&lt;font style=&quot;font-size: 14px;&quot;&gt;Admin&lt;/font&gt;" style="rounded=0;whiteSpace=wrap;html=1;" parent="1" vertex="1">
          <mxGeometry x="440" y="490" width="120" height="60" as="geometry" />
        </mxCell>
        <mxCell id="K6x9Ov7QHbUF7kRRLtOt-1" value="" style="endArrow=classic;html=1;rounded=0;exitX=0.083;exitY=0.767;exitDx=0;exitDy=0;exitPerimeter=0;entryX=0;entryY=1;entryDx=0;entryDy=0;" edge="1" parent="1" source="C25XNkKTsRp1NML5GKJl-1" target="C25XNkKTsRp1NML5GKJl-56">
          <mxGeometry width="50" height="50" relative="1" as="geometry">
            <mxPoint x="400" y="370" as="sourcePoint" />
            <mxPoint x="450" y="320" as="targetPoint" />
            <Array as="points">
              <mxPoint x="40" y="290" />
            </Array>
          </mxGeometry>
        </mxCell>
        <mxCell id="K6x9Ov7QHbUF7kRRLtOt-2" value="" style="endArrow=classic;html=1;rounded=0;entryX=0.933;entryY=0.733;entryDx=0;entryDy=0;entryPerimeter=0;exitX=0.75;exitY=1;exitDx=0;exitDy=0;" edge="1" parent="1" source="C25XNkKTsRp1NML5GKJl-58" target="C25XNkKTsRp1NML5GKJl-1">
          <mxGeometry width="50" height="50" relative="1" as="geometry">
            <mxPoint x="500" y="300" as="sourcePoint" />
            <mxPoint x="450" y="320" as="targetPoint" />
            <Array as="points">
              <mxPoint x="770" y="288" />
            </Array>
          </mxGeometry>
        </mxCell>
        <mxCell id="K6x9Ov7QHbUF7kRRLtOt-3" value="" style="endArrow=classic;html=1;rounded=0;exitX=1;exitY=0.5;exitDx=0;exitDy=0;entryX=0.5;entryY=1;entryDx=0;entryDy=0;" edge="1" parent="1" source="C25XNkKTsRp1NML5GKJl-1" target="C25XNkKTsRp1NML5GKJl-58">
          <mxGeometry width="50" height="50" relative="1" as="geometry">
            <mxPoint x="400" y="370" as="sourcePoint" />
            <mxPoint x="450" y="320" as="targetPoint" />
            <Array as="points">
              <mxPoint x="740" y="260" />
            </Array>
          </mxGeometry>
        </mxCell>
        <mxCell id="K6x9Ov7QHbUF7kRRLtOt-4" value="" style="endArrow=classic;html=1;rounded=0;entryX=1;entryY=0;entryDx=0;entryDy=0;exitX=0.25;exitY=1;exitDx=0;exitDy=0;" edge="1" parent="1" source="C25XNkKTsRp1NML5GKJl-58" target="C25XNkKTsRp1NML5GKJl-1">
          <mxGeometry width="50" height="50" relative="1" as="geometry">
            <mxPoint x="570" y="170" as="sourcePoint" />
            <mxPoint x="450" y="320" as="targetPoint" />
            <Array as="points">
              <mxPoint x="710" y="218" />
            </Array>
          </mxGeometry>
        </mxCell>
        <mxCell id="K6x9Ov7QHbUF7kRRLtOt-5" value="" style="endArrow=classic;html=1;rounded=0;exitX=0.733;exitY=0.042;exitDx=0;exitDy=0;exitPerimeter=0;entryX=0;entryY=0.5;entryDx=0;entryDy=0;" edge="1" parent="1" source="C25XNkKTsRp1NML5GKJl-1" target="C25XNkKTsRp1NML5GKJl-58">
          <mxGeometry width="50" height="50" relative="1" as="geometry">
            <mxPoint x="400" y="370" as="sourcePoint" />
            <mxPoint x="450" y="320" as="targetPoint" />
            <Array as="points">
              <mxPoint x="530" y="70" />
            </Array>
          </mxGeometry>
        </mxCell>
        <mxCell id="K6x9Ov7QHbUF7kRRLtOt-6" value="" style="endArrow=classic;html=1;rounded=0;entryX=1;entryY=0.75;entryDx=0;entryDy=0;exitX=1;exitY=1;exitDx=0;exitDy=0;" edge="1" parent="1" source="C25XNkKTsRp1NML5GKJl-1" target="C25XNkKTsRp1NML5GKJl-59">
          <mxGeometry width="50" height="50" relative="1" as="geometry">
            <mxPoint x="650" y="480" as="sourcePoint" />
            <mxPoint x="450" y="320" as="targetPoint" />
            <Array as="points">
              <mxPoint x="700" y="302" />
              <mxPoint x="700" y="535" />
            </Array>
          </mxGeometry>
        </mxCell>
        <mxCell id="K6x9Ov7QHbUF7kRRLtOt-7" value="" style="endArrow=classic;html=1;rounded=0;exitX=1;exitY=0.25;exitDx=0;exitDy=0;entryX=0.658;entryY=0.967;entryDx=0;entryDy=0;entryPerimeter=0;" edge="1" parent="1" source="C25XNkKTsRp1NML5GKJl-59" target="C25XNkKTsRp1NML5GKJl-1">
          <mxGeometry width="50" height="50" relative="1" as="geometry">
            <mxPoint x="400" y="370" as="sourcePoint" />
            <mxPoint x="450" y="320" as="targetPoint" />
            <Array as="points">
              <mxPoint x="680" y="505" />
              <mxPoint x="680" y="340" />
              <mxPoint x="519" y="340" />
            </Array>
          </mxGeometry>
        </mxCell>
        <mxCell id="K6x9Ov7QHbUF7kRRLtOt-9" value="" style="endArrow=classic;html=1;rounded=0;exitX=0;exitY=1;exitDx=0;exitDy=0;entryX=0;entryY=0.75;entryDx=0;entryDy=0;" edge="1" parent="1" source="C25XNkKTsRp1NML5GKJl-1" target="C25XNkKTsRp1NML5GKJl-59">
          <mxGeometry width="50" height="50" relative="1" as="geometry">
            <mxPoint x="400" y="370" as="sourcePoint" />
            <mxPoint x="450" y="320" as="targetPoint" />
            <Array as="points">
              <mxPoint x="300" y="302" />
              <mxPoint x="300" y="535" />
            </Array>
          </mxGeometry>
        </mxCell>
        <mxCell id="K6x9Ov7QHbUF7kRRLtOt-10" value="" style="endArrow=classic;html=1;rounded=0;entryX=0.367;entryY=0.983;entryDx=0;entryDy=0;entryPerimeter=0;exitX=0;exitY=0.25;exitDx=0;exitDy=0;" edge="1" parent="1" source="C25XNkKTsRp1NML5GKJl-59" target="C25XNkKTsRp1NML5GKJl-1">
          <mxGeometry width="50" height="50" relative="1" as="geometry">
            <mxPoint x="360" y="390" as="sourcePoint" />
            <mxPoint x="470" y="400" as="targetPoint" />
            <Array as="points">
              <mxPoint x="320" y="505" />
              <mxPoint x="320" y="340" />
              <mxPoint x="484" y="340" />
            </Array>
          </mxGeometry>
        </mxCell>
        <mxCell id="K6x9Ov7QHbUF7kRRLtOt-11" value="" style="endArrow=classic;html=1;rounded=0;entryX=0.5;entryY=0;entryDx=0;entryDy=0;exitX=0.25;exitY=0;exitDx=0;exitDy=0;" edge="1" parent="1" source="C25XNkKTsRp1NML5GKJl-56" target="C25XNkKTsRp1NML5GKJl-1">
          <mxGeometry width="50" height="50" relative="1" as="geometry">
            <mxPoint x="130" y="50" as="sourcePoint" />
            <mxPoint x="450" y="320" as="targetPoint" />
            <Array as="points">
              <mxPoint x="70" y="30" />
              <mxPoint x="500" y="30" />
            </Array>
          </mxGeometry>
        </mxCell>
        <mxCell id="K6x9Ov7QHbUF7kRRLtOt-12" value="" style="endArrow=classic;html=1;rounded=0;exitX=1;exitY=0;exitDx=0;exitDy=0;entryX=0.367;entryY=0;entryDx=0;entryDy=0;entryPerimeter=0;" edge="1" parent="1" source="C25XNkKTsRp1NML5GKJl-56" target="C25XNkKTsRp1NML5GKJl-1">
          <mxGeometry width="50" height="50" relative="1" as="geometry">
            <mxPoint x="400" y="370" as="sourcePoint" />
            <mxPoint x="450" y="320" as="targetPoint" />
            <Array as="points">
              <mxPoint x="484" y="50" />
            </Array>
          </mxGeometry>
        </mxCell>
        <mxCell id="K6x9Ov7QHbUF7kRRLtOt-13" value="" style="endArrow=classic;html=1;rounded=0;exitX=1;exitY=0.5;exitDx=0;exitDy=0;" edge="1" parent="1" source="C25XNkKTsRp1NML5GKJl-56">
          <mxGeometry width="50" height="50" relative="1" as="geometry">
            <mxPoint x="400" y="370" as="sourcePoint" />
            <mxPoint x="466" y="210" as="targetPoint" />
            <Array as="points">
              <mxPoint x="466" y="80" />
            </Array>
          </mxGeometry>
        </mxCell>
        <mxCell id="K6x9Ov7QHbUF7kRRLtOt-15" value="" style="endArrow=classic;html=1;rounded=0;exitX=1;exitY=1;exitDx=0;exitDy=0;entryX=0;entryY=0;entryDx=0;entryDy=0;" edge="1" parent="1" source="C25XNkKTsRp1NML5GKJl-56" target="C25XNkKTsRp1NML5GKJl-1">
          <mxGeometry width="50" height="50" relative="1" as="geometry">
            <mxPoint x="400" y="370" as="sourcePoint" />
            <mxPoint x="450" y="320" as="targetPoint" />
            <Array as="points">
              <mxPoint x="400" y="110" />
            </Array>
          </mxGeometry>
        </mxCell>
        <mxCell id="K6x9Ov7QHbUF7kRRLtOt-19" value="" style="endArrow=classic;html=1;rounded=0;entryX=0.75;entryY=1;entryDx=0;entryDy=0;exitX=0.058;exitY=0.225;exitDx=0;exitDy=0;exitPerimeter=0;" edge="1" parent="1" source="C25XNkKTsRp1NML5GKJl-1" target="C25XNkKTsRp1NML5GKJl-56">
          <mxGeometry width="50" height="50" relative="1" as="geometry">
            <mxPoint x="390" y="200" as="sourcePoint" />
            <mxPoint x="450" y="320" as="targetPoint" />
            <Array as="points">
              <mxPoint x="400" y="200" />
              <mxPoint x="130" y="200" />
            </Array>
          </mxGeometry>
        </mxCell>
        <mxCell id="K6x9Ov7QHbUF7kRRLtOt-22" value="" style="endArrow=classic;html=1;rounded=0;entryX=0.25;entryY=1;entryDx=0;entryDy=0;exitX=0;exitY=0.5;exitDx=0;exitDy=0;" edge="1" parent="1" source="C25XNkKTsRp1NML5GKJl-1" target="C25XNkKTsRp1NML5GKJl-56">
          <mxGeometry width="50" height="50" relative="1" as="geometry">
            <mxPoint x="400" y="370" as="sourcePoint" />
            <mxPoint x="450" y="320" as="targetPoint" />
            <Array as="points">
              <mxPoint x="70" y="260" />
            </Array>
          </mxGeometry>
        </mxCell>
        <mxCell id="K6x9Ov7QHbUF7kRRLtOt-23" value="" style="endArrow=classic;html=1;rounded=0;entryX=0.5;entryY=1;entryDx=0;entryDy=0;exitX=0.017;exitY=0.325;exitDx=0;exitDy=0;exitPerimeter=0;" edge="1" parent="1" source="C25XNkKTsRp1NML5GKJl-1" target="C25XNkKTsRp1NML5GKJl-56">
          <mxGeometry width="50" height="50" relative="1" as="geometry">
            <mxPoint x="370" y="220" as="sourcePoint" />
            <mxPoint x="450" y="320" as="targetPoint" />
            <Array as="points">
              <mxPoint x="100" y="240" />
            </Array>
          </mxGeometry>
        </mxCell>
      </root>
    </mxGraphModel>
  </diagram>
</mxfile>
